# xmcd
#
# Track frame offsets: 
#        150
#        3639
#        15433
#        28051
#        47946
#        64387
#        84265
#        127332
#        142102
#        162146
#        174926
#        184230
#        205297
#
# Disc length: 2981 seconds
#
# Revision: 0
# Processed by: cddbd v1.5.2PL0 Copyright (c) Steve Scherf et al.
# Submitted via: ExactAudioCopyFreeDBPlugin 1.0
#
DISCID=b60ba30d
DTITLE=Josh Ritter - The Beast In Its Tracks
DYEAR=2013
DGENRE=Americana
TTITLE0=Third Arm
TTITLE1=Evil Eye
TTITLE2=A Certain Light
TTITLE3=Hopeful
TTITLE4=Nightmares
TTITLE5=New Lover
TTITLE6=Heart's Ease
TTITLE7=In Your Arms Again
TTITLE8=The Appleblossom Rag
TTITLE9=Bonfire
TTITLE10=In Your Arms Awhile
TTITLE11=Joy To You Baby
TTITLE12=Lights
EXTD=
EXTT0=
EXTT1=
EXTT2=
EXTT3=
EXTT4=
EXTT5=
EXTT6=
EXTT7=
EXTT8=
EXTT9=
EXTT10=
EXTT11=
EXTT12=
PLAYORDER=
